<svg width="61" height="52" viewBox="0 0 61 52" fill="none" xmlns="http://www.w3.org/2000/svg">
<rect x="0.5" y="0.5" width="60" height="51" rx="9.5" stroke="#0057FF"/>
<path d="M33.8162 28.3526C33.8162 30.2725 32.3326 31.8266 30.5 31.8266C28.6674 31.8266 27.1838 30.2725 27.1838 28.3526C27.1838 26.4328 28.6674 24.8786 30.5 24.8786C32.3326 24.8786 33.8162 26.4328 33.8162 28.3526ZM40.6027 19.6461C41.9271 19.6461 43 20.77 43 22.1575V28.7398V34.3219C43 35.8008 41.8552 37 40.4435 37H20.5565C19.1448 37 18 35.8008 18 34.3219V28.7344V22.1575C18 20.77 19.0729 19.6461 20.3973 19.6461H25.192L25.4179 18.6458C25.7618 17.0971 27.0811 16 28.6006 16H32.4045C33.924 16 35.2433 17.0971 35.5873 18.6458L35.808 19.6461H40.6027ZM23 23.2707C23 22.577 22.461 22.0123 21.7988 22.0123C21.1314 22.0123 20.5924 22.577 20.5924 23.2707C20.5924 23.9644 21.1314 24.5291 21.7936 24.5291C22.461 24.5344 23 23.9698 23 23.2707ZM36.4138 28.3526C36.4138 24.9324 33.7649 22.1575 30.5 22.1575C27.2351 22.1575 24.5862 24.9324 24.5862 28.3526C24.5862 31.7729 27.2351 34.5478 30.5 34.5478C33.7649 34.5478 36.4138 31.7729 36.4138 28.3526Z" fill="#0057FF"/>
</svg>
