<svg width="52" height="52" viewBox="0 0 52 52" fill="none" xmlns="http://www.w3.org/2000/svg">
<path d="M18.6094 19.625V31H15.9766V22.5938L13.3828 23.3516V21.3516L18.3672 19.625H18.6094ZM30 28.9688V31H22.0625V29.2812L25.7188 25.4375C26.0417 25.0677 26.3021 24.737 26.5 24.4453C26.6979 24.1484 26.8411 23.8802 26.9297 23.6406C27.0234 23.401 27.0703 23.1849 27.0703 22.9922C27.0703 22.6641 27.0208 22.3906 26.9219 22.1719C26.8281 21.9479 26.6875 21.7786 26.5 21.6641C26.3177 21.5495 26.0911 21.4922 25.8203 21.4922C25.5495 21.4922 25.3125 21.5703 25.1094 21.7266C24.9062 21.8828 24.7474 22.0964 24.6328 22.3672C24.5234 22.638 24.4688 22.9427 24.4688 23.2812H21.8281C21.8281 22.5833 21.9974 21.9453 22.3359 21.3672C22.6797 20.7891 23.1562 20.3281 23.7656 19.9844C24.375 19.6354 25.0807 19.4609 25.8828 19.4609C26.7214 19.4609 27.4245 19.5911 27.9922 19.8516C28.5599 20.112 28.987 20.4896 29.2734 20.9844C29.5651 21.474 29.7109 22.0651 29.7109 22.7578C29.7109 23.1536 29.6484 23.5339 29.5234 23.8984C29.3984 24.263 29.2188 24.625 28.9844 24.9844C28.75 25.3385 28.4635 25.7031 28.125 26.0781C27.7917 26.4531 27.4115 26.8516 26.9844 27.2734L25.5156 28.9688H30ZM33.7422 24.2109H35.0234C35.3516 24.2109 35.6198 24.1536 35.8281 24.0391C36.0417 23.9193 36.2005 23.7526 36.3047 23.5391C36.4089 23.3203 36.4609 23.0625 36.4609 22.7656C36.4609 22.5365 36.4115 22.3255 36.3125 22.1328C36.2188 21.9401 36.0729 21.7865 35.875 21.6719C35.6771 21.5521 35.4245 21.4922 35.1172 21.4922C34.9089 21.4922 34.7057 21.5365 34.5078 21.625C34.3099 21.7083 34.1458 21.8281 34.0156 21.9844C33.8906 22.1406 33.8281 22.3307 33.8281 22.5547H31.1875C31.1875 21.9089 31.3646 21.3568 31.7188 20.8984C32.0781 20.4349 32.5495 20.0807 33.1328 19.8359C33.7214 19.5859 34.3542 19.4609 35.0312 19.4609C35.8385 19.4609 36.5469 19.5859 37.1562 19.8359C37.7656 20.0807 38.2396 20.4453 38.5781 20.9297C38.9219 21.4089 39.0938 22.0026 39.0938 22.7109C39.0938 23.1016 39.0026 23.4688 38.8203 23.8125C38.638 24.1562 38.3828 24.4583 38.0547 24.7188C37.7266 24.9792 37.3411 25.1849 36.8984 25.3359C36.4609 25.4818 35.9818 25.5547 35.4609 25.5547H33.7422V24.2109ZM33.7422 26.1719V24.8594H35.4609C36.0286 24.8594 36.5469 24.9245 37.0156 25.0547C37.4844 25.1797 37.888 25.3672 38.2266 25.6172C38.5651 25.8672 38.8255 26.1771 39.0078 26.5469C39.1901 26.9115 39.2812 27.3307 39.2812 27.8047C39.2812 28.3359 39.1745 28.8099 38.9609 29.2266C38.7474 29.6432 38.4479 29.9948 38.0625 30.2812C37.6771 30.5677 37.2266 30.7865 36.7109 30.9375C36.1953 31.0833 35.6354 31.1562 35.0312 31.1562C34.5573 31.1562 34.0833 31.0938 33.6094 30.9688C33.1354 30.8385 32.7031 30.6406 32.3125 30.375C31.9219 30.1042 31.6068 29.7604 31.3672 29.3438C31.1328 28.9219 31.0156 28.4193 31.0156 27.8359H33.6562C33.6562 28.0755 33.7214 28.2943 33.8516 28.4922C33.987 28.6849 34.1667 28.8385 34.3906 28.9531C34.6146 29.0677 34.8568 29.125 35.1172 29.125C35.4401 29.125 35.7135 29.0651 35.9375 28.9453C36.1667 28.8203 36.3411 28.6536 36.4609 28.4453C36.5807 28.237 36.6406 28.0052 36.6406 27.75C36.6406 27.3646 36.5755 27.0573 36.4453 26.8281C36.3203 26.599 36.1354 26.4323 35.8906 26.3281C35.651 26.224 35.362 26.1719 35.0234 26.1719H33.7422Z" fill="#0057FF"/>
<path d="M52 26C52 40.3594 40.3594 52 26 52C11.6406 52 0 40.3594 0 26C0 11.6406 11.6406 0 26 0C40.3594 0 52 11.6406 52 26ZM2.6 26C2.6 38.9235 13.0765 49.4 26 49.4C38.9235 49.4 49.4 38.9235 49.4 26C49.4 13.0765 38.9235 2.6 26 2.6C13.0765 2.6 2.6 13.0765 2.6 26Z" fill="#DFDFDF"/>
<path d="M26 2.6782e-06C30.1031 2.49885e-06 34.1479 0.971079 37.8037 2.83383C41.4596 4.69659 44.6227 7.39813 47.0344 10.7176L44.931 12.2458C42.7604 9.25832 39.9136 6.82693 36.6234 5.15045C33.3331 3.47397 29.6928 2.6 26 2.6L26 2.6782e-06Z" fill="#0057FF"/>
</svg>
